<?xml version="1.0" encoding="UTF-8"?>
<svg id="Layer_12" data-name="Layer 12" xmlns="http://www.w3.org/2000/svg" viewBox="0 0 833.96 602.15">
  <defs>
    <style>
      .cls-1 {
        stroke-width: 2.97px;
      }

      .cls-1, .cls-2, .cls-3, .cls-4, .cls-5, .cls-6, .cls-7, .cls-8, .cls-9, .cls-10, .cls-11, .cls-12, .cls-13, .cls-14, .cls-15, .cls-16, .cls-17, .cls-18 {
        stroke: #570060;
        stroke-linecap: round;
        stroke-linejoin: round;
      }

      .cls-1, .cls-2, .cls-3, .cls-4, .cls-6, .cls-7, .cls-8, .cls-9, .cls-10, .cls-11, .cls-12, .cls-13, .cls-14, .cls-15, .cls-16, .cls-17, .cls-18 {
        fill: none;
      }

      .cls-2 {
        stroke-width: 1.27px;
      }

      .cls-3 {
        stroke-width: .47px;
      }

      .cls-4 {
        stroke-width: .46px;
      }

      .cls-5 {
        fill: #fff;
      }

      .cls-5, .cls-9 {
        stroke-width: 4.95px;
      }

      .cls-6 {
        stroke-width: .49px;
      }

      .cls-7, .cls-16 {
        stroke-width: .99px;
      }

      .cls-8 {
        stroke-width: .47px;
      }

      .cls-10 {
        stroke-width: 1.98px;
      }

      .cls-11 {
        stroke-width: .49px;
      }

      .cls-12 {
        stroke-width: .49px;
      }

      .cls-13 {
        stroke-width: .49px;
      }

      .cls-14 {
        stroke-width: .45px;
      }

      .cls-15 {
        stroke-width: 1.74px;
      }

      .cls-16 {
        opacity: .37;
      }

      .cls-17 {
        stroke-width: .41px;
      }

      .cls-18 {
        stroke-width: .43px;
      }
    </style>
  </defs>
  <path class="cls-9" d="M84.67,470.89c18.84-18.04,34.95-38.93,47.59-61.75,7.44-13.44,13.9-27.81,24.83-38.6,24.02-23.7,54.33-8.16,78.49,7.22,11.08,7.06,21.24,15.46,31.75,23.34,38.34,28.74,81.78,50.66,127.67,64.43,28-8.65,57.82-14.28,87-17.04,16.34-1.55,32.87-2.17,48.83-6.02,26.69-6.43,50.37-21.48,73.49-36.29,8.07-5.17,16.14-10.33,24.21-15.5,4.34-2.78,9.28-6.89,8.2-11.93,16.12-7.27,32.92-16.25,48.02-25.45,7.92-4.82,15.75-9.84,23.05-15.55,5.35-4.19,10.45-8.78,16.44-11.99,6.85-3.68,14.56-5.4,22.16-7.08,10.04-2.22,20.1-4.44,30.31-5.68,15.34-1.86,31.46-1.63,45.27-8.56,1.74-.87,3.5-1.93,4.45-3.62.95-1.69.75-4.18-.9-5.19-.92-.56-2.06-.58-3.14-.57-7.15.03-14.29.06-21.44.1,1.54-1.32,2.41-2.66,3.94-3.98,5.72-4.91,13.54-2.62,21.07-2.98-.46-4.19-3.96-7.94-7.78-9.73-3.82-1.79-8.13-2.17-12.35-2.35-21.36-.95-79.51-1.44-112.6-34.59-12.07-12.09-19.55-28.03-30.44-41.2-18.2-22-31.76-48.44-47.17-72.47-4.79-7.47-9.61-14.98-15.57-21.55-10.24-11.28-23.46-19.35-36.47-27.26-23.56-14.32-47.12-28.63-70.68-42.95-4.9-2.98-9.91-6-15.49-7.3-4.55-1.06-8.25-4.13-12.37-6.34-2.34-1.25-5.3-2.45-7.48-.94-3.47-2.3-8.39-3.49-12.55-3.42-5.58-2.1-11.23-3.9-16.81-6-4.14-1.56-8.45-3.14-12.86-2.79-4.52-.97-9.2-.54-13.71.48-15.73-1.52-32.84-2.86-48.56-4.38-3.02-.29-6.05-.58-9.08-.63-6.92-.12-13.85,1.03-20.37,3.37-6.26-1.59-13.1-1.78-18.49,1.78-6.59,4.35-15.4,1.11-23.17-.24-4.31-.75-9.32-1.67-12.6,1.23-1.05.93-1.31,3.18-2.01,4.4-16.68-2.98-33.97-2.51-50.46,1.37-4.11.97-8.24,2.17-11.78,4.46-2.88,1.86-5.47,4.46-8.83,5.12-2.85.56-5.81-.39-8.67.05-6.88,1.05-10.76,9.4-17.6,10.67-3.05.56-6.65-.27-8.96,1.81-1.18,1.07-1.73,2.71-2.9,3.79-1.37,1.26-3.34,1.56-5.16,1.9-22.92,4.28-39.82,23.81-51.66,43.89,4.93,13.49,5.78,28.52,6.77,42.85,2.68,38.47,10.11,76.6,22.08,113.26,4.22,12.94,9.4,26.28,19.72,35.16,8.99-1.28,18.09-.89,24.61,5.42-4.69,3.35-9.12,4.64-14.85,4.04-5.73-.61-11.22-2.58-16.63-4.55-12.08-4.37-20.52-15.12-29.32-24.48-18.48-19.63-40.59-35.85-64.88-47.57"/>
  <path class="cls-5" d="M208.08,362c-4.95,3.06-12-.17-16.96,2.88-2.61,1.6-4.31,4.77-7.32,5.34-7.21,1.36-10.9-.38-9.94,9,.5,4.87,4.73,9.62-1.25,12.61-15.79,7.9-14.72,28.66-6.52,33.04-5.32,9.72-7.02,38.07-9.96,56.44-1.27,7.93-2.54,15.99-1.43,23.94,1.37,9.77,6.26,18.77,7.71,28.52.79,5.27,3.1,3.05,4.94,8.05,4.37,11.86,15.93,28.92,28.29,31.58,19.79,4.26,40.63,2.04,59.78-4.53,18.05-6.19,27.92-9.3,44.83-18.49,3.06-1.67,5.53-8.48,7.9-5.92,7.9,8.55,16.61.14,20.4-2.63,17.22-12.59,35.68-39.98,42.77-32.89.66.66,23.53-31.31,26.32-40.79,2.79-9.47,6.88-1.82-2.89-3.26-38.74,58.14-106.75,95.65-176.6,97.4-7.13.18-14.45-.03-21.08-2.63-11.58-4.55-19.39-15.92-22.81-27.88-3.42-11.96-3.11-24.63-2.76-37.06,1.1-39.98,2.2-79.96,3.3-119.94"/>
  <path class="cls-7" d="M150.87,288.34c2.9,4.33,3.42,10.14,1.34,14.92-.5,1.14-1.15,2.27-1.23,3.52-.08,1.32.49,2.61.55,3.93.1,2.34-1.38,4.49-1.44,6.83-.06,1.95.87,3.77,1.76,5.49,6.36,12.23,12.72,24.46,19.08,36.68-.95-7.89,3.23-14.77,1.83-22.59-.54-3.01-.79-6.06-1.04-9.11-1.08-13.15-2.16-26.31-3.24-39.46"/>
  <path class="cls-9" d="M657.52,234.41c-4.74.43-9.05,3.95-10.43,8.5-1.38,4.55.26,9.87,3.96,12.86,2.05,1.65,4.65,2.61,7.28,2.68,6.73.18,12.89-6.2,12.47-12.92s-7.33-12.29-13.98-11.27"/>
  <path class="cls-9" d="M625.92,251.95c.9,3.67,2.2,7.25,4.15,10.49,4.56,7.57,12.74,12.87,21.52,13.8,8.78.93,17.96-2.58,23.77-9.23,9.42-10.78,8.43-28.57-1.02-39.33-7.75-8.83-26.01-16.3-37.5-10.39-11.54,5.93-13.64,23.54-10.93,34.66Z"/>
  <path class="cls-10" d="M591.87,97.64c3.87,11.27,7.73,22.55,11.6,33.82,1.02,2.96,2.03,5.93,3.05,8.89,2.38,6.95,4.77,13.91,7.15,20.86,4.08,11.91,8.17,23.82,12.25,35.73,2.91,8.49,5.82,16.98,8.73,25.46,2.07,6.03,4.15,12.12,4.91,18.46.31,2.59.4,5.25,1.37,7.68,1.77,4.46,6.37,7.94,6.21,12.74-.05,1.64-.69,3.21-.98,4.82-.64,3.6.46,7.25,1.49,10.76,8.85,30.17,13.11,62.32,6.93,93.15,4.27-7.28,14.36-17.95,16.57-26.1,1.92-7.09,2.17-14.51,2.41-21.86.49-14.81.93-29.94-3.42-44.11-.96-3.13-2.17-6.4-1.42-9.59.43-1.83,1.47-3.45,2.26-5.16,2.6-5.56,2.56-12.28-.11-17.81-1.37-2.84-3.43-5.46-3.88-8.59-.62-4.34,1.99-8.81.76-13.02-.65-2.24-2.3-4.03-3.87-5.76-23.25-25.64-39.81-57.28-47.64-90.99"/>
  <path class="cls-10" d="M441.12,454.57c14.48-23.44,26.67-50.24,23.47-77.61-1.65-14.06-7.28-27.34-10.02-41.22-2.56-12.97-2.55-26.29-2.51-39.51.17-57.29.78-114.6-1.52-171.84-.57-14.15-1.37-28.56-6.32-41.82-2.5-6.69-6.07-13.19-6.43-20.33-.16-3.2.32-6.56-.97-9.49-1.13-2.59-3.46-4.42-5.71-6.14-7.07-5.43-14.15-10.86-21.22-16.28-1.5-4.79,1.55-8.93,6.51-9.74,4.96-.81,9.89,1.23,14.5,3.23,21.78,9.44,43.55,18.87,65.33,28.31,3.88,1.68,7.84,3.41,10.96,6.27,2.45,2.24,4.28,5.08,5.82,8.02,4.96,9.48,7.17,20.12,9.32,30.6,8.45,41.25,16.91,82.5,25.36,123.76,2.27,11.1,4.56,22.41,3.37,33.68-1.13,10.72-5.39,21.21-4.37,31.94.64,6.78,3.37,13.17,5.14,19.75,2.05,7.58,2.84,15.43,3.62,23.24,3.65,36.26,6.91,74.76-9.28,107.4"/>
  <path class="cls-10" d="M565.57,428.67c11.29-16.32,17.96-35.8,19.05-55.61.46-8.29-.03-16.72,1.93-24.79,1.46-6,4.23-11.63,5.6-17.65,1.14-5,1.29-10.17,1.44-15.3.32-11.29.65-22.58.97-33.87.35-12.15.68-24.5-2.45-36.24-2.41-9.06-6.81-17.48-9.57-26.44-2.61-8.44-3.74-17.25-5.35-25.93-3.65-19.62-9.8-38.67-15.94-57.66-4.01-12.41-8.03-24.84-13.22-36.8-4.78-11.01-10.69-22.25-9.91-34.23"/>
  <path class="cls-10" d="M568.53,429.32c11.29-16.32,17.96-35.79,19.05-55.6.46-8.29-.03-16.72,1.93-24.79,1.46-6,4.23-11.63,5.6-17.65,1.14-5,1.29-10.17,1.44-15.3.32-11.29.65-22.58.97-33.87.35-12.15.68-24.49-2.45-36.23-2.41-9.06-6.81-17.48-9.57-26.44-2.61-8.44-3.74-17.24-5.35-25.93-3.65-19.61-9.8-38.66-15.94-57.65-4.01-12.41-8.03-24.84-13.22-36.8-4.78-11.01-10.69-22.25-9.91-34.23"/>
  <path class="cls-10" d="M588.9,95.78c3.87,11.41,7.73,22.82,11.6,34.23,1.02,3,2.03,6,3.05,9,2.38,7.04,4.77,14.07,7.15,21.11,4.08,12.05,8.17,24.11,12.25,36.16,2.91,8.59,5.82,17.18,8.73,25.77,2.07,6.11,4.15,12.27,4.91,18.68.31,2.62.4,5.32,1.37,7.77,1.77,4.51,6.37,8.04,6.21,12.89-.05,1.66-.69,3.24-.98,4.88-.64,3.64.46,7.34,1.49,10.89,8.85,30.53,13.11,63.07,6.93,94.27,4.27-7.37,14.36-18.16,16.57-26.41,1.92-7.18,2.17-14.69,2.41-22.12.49-14.99.93-30.3-3.42-44.64-.96-3.17-2.17-6.48-1.42-9.71.43-1.86,1.47-3.5,2.26-5.22,2.6-5.63,2.56-12.43-.11-18.02-1.37-2.88-3.43-5.53-3.88-8.69-.62-4.39,1.99-8.92.76-13.18-.65-2.27-2.3-4.08-3.87-5.83-23.25-25.95-39.81-57.97-47.64-92.08"/>
  <path class="cls-13" d="M616.52,132.21c-29.45-8.35-75.97-26.99-102.35-42.52-9.95-5.85-19.69-12.23-30.46-16.37-11.73-4.51-24.34-6.24-36.85-7.46-29.45-2.87-59.09-3.1-88.68-3.17-14.44-.04-28.92-.03-43.27,1.65-6.05.71-12.09,1.72-18.18,1.58-13.37-.31-25.9-6.07-38.57-10.33-31.33-10.51-64.87-11.99-97.89-13.37"/>
  <path class="cls-13" d="M620.48,140.13c-31.76-8.35-78.61-25.01-107.05-40.54-10.73-5.85-21.23-12.23-32.85-16.37-12.65-4.51-26.24-6.24-39.74-7.46-31.75-2.87-63.71-3.1-95.62-3.17-15.57-.04-31.19-.03-46.65,1.65-6.52.71-13.04,1.72-19.6,1.58-14.41-.31-27.92-6.07-41.59-10.33-33.79-10.51-69.95-11.99-105.55-13.37"/>
  <path class="cls-13" d="M631.36,153.98c-32.6-8.35-88.51-28.99-117.7-44.52-11.01-5.85-21.79-12.23-33.72-16.37-12.99-4.51-26.94-6.24-40.79-7.46-32.59-2.87-65.4-3.1-98.15-3.17-15.98-.04-32.01-.03-47.89,1.65-6.69.71-13.39,1.72-20.12,1.58-14.8-.31-28.66-6.07-42.69-10.33-34.68-10.51-71.8-11.99-108.34-13.37"/>
  <path class="cls-13" d="M639.28,165.85c-33.48-8.35-95.52-29.68-125.52-45.2-11.31-5.85-22.38-12.23-34.63-16.37-13.34-4.51-27.67-6.24-41.89-7.46-33.48-2.87-67.17-3.1-100.81-3.17-16.42-.04-32.88-.03-49.19,1.65-6.88.71-13.75,1.72-20.67,1.58-15.2-.31-29.44-6.07-43.85-10.33-35.62-10.51-73.74-11.99-111.28-13.37"/>
  <path class="cls-13" d="M645.21,176.73c-33.63-4.95-97.36-26.74-128.19-42.27-11.62-5.85-23-12.23-35.59-16.37-13.71-4.51-28.44-6.24-43.06-7.46-34.41-2.87-69.03-3.1-103.61-3.17-16.87-.04-33.79-.03-50.55,1.65-7.07.71-14.13,1.72-21.24,1.58-15.62-.31-30.26-6.07-45.07-10.33-36.61-10.51-75.79-11.99-114.37-13.37"/>
  <path class="cls-13" d="M652.14,187.61c-38.58.99-99.72-26.44-130.86-41.97-11.74-5.85-23.24-12.23-35.96-16.37-13.85-4.51-28.73-6.24-43.5-7.46-34.76-2.87-69.74-3.1-104.67-3.17-17.05-.04-34.14-.03-51.07,1.65-7.14.71-14.28,1.72-21.46,1.58-15.78-.31-30.57-6.07-45.53-10.33-36.99-10.51-76.57-11.99-115.55-13.37"/>
  <path class="cls-13" d="M662.03,198.49c-42.54,4.95-105.36-24.16-136.66-39.69-11.8-5.85-23.36-12.23-36.14-16.37-13.92-4.51-28.87-6.24-43.72-7.46-34.94-2.87-70.1-3.1-105.2-3.17-17.13-.04-34.31-.03-51.33,1.65-7.17.71-14.35,1.72-21.57,1.58-15.86-.31-30.72-6.07-45.76-10.33-37.17-10.51-76.96-11.99-116.13-13.37"/>
  <path class="cls-13" d="M666.98,208.38c-56.39,9.89-108.98-19.58-140.28-35.11-11.8-5.85-23.36-12.23-36.14-16.37-13.92-4.51-28.87-6.24-43.72-7.46-34.94-2.87-70.1-3.1-105.2-3.17-17.13-.04-34.31-.03-51.33,1.65-7.17.71-14.35,1.72-21.57,1.58-15.86-.31-30.72-6.07-45.76-10.33-37.17-10.51-76.96-11.99-116.13-13.37"/>
  <path class="cls-5" d="M483.75,545.72c1.55,5.64,6.06,12.59,11.44,10.29-6.66,13.96-14.97,27.13-24.69,39.16,6.16,1.36,11.83-3.39,16.35-7.79,16.63-16.16,33.25-32.33,49.88-48.49,5.7-5.54,11.47-11.17,15.6-17.97,16.29-26.87,2.78-63.22,15.4-92-13.66,7.98-28.54,13.84-43.95,17.41-9.88,2.29-34.6-.23-41.62,5.88-7.73,6.73-5.5,36.32-5.31,45.77.32,16.12,2.63,32.2,6.91,47.74Z"/>
  <path class="cls-7" d="M479.08,457.82c10.16-3.45,20.22-7.23,30.14-11.33-9.79,8.32-20.64,15.39-32.21,20.98,17.11-.32,35-.83,47.91-12.06-13.14,14.71-28.64,27.31-45.71,37.19"/>
  <path class="cls-2" d="M477.65,506.46c5.56-1.65,9.08-5.93,12.84-9.61,17.11-16.76,45.35-24.88,60.05-43.06-5.64,7.37-11.28,14.74-16.92,22.1-14.4,18.81-29.14,37.95-49.97,52.32"/>
  <path class="cls-15" d="M555.13,482.28c-15.45,12.55-20.55,68.3-63.88,65.47-24.2-1.58,5.7-18.19,12.24-23.51,17.21-13.99,34.42-27.98,51.64-41.96Z"/>
  <path class="cls-5" d="M460.61,471.77c-1.59,3.48-4.46,6.16-6.87,9.14-5.21,6.44-8.25,14.31-11.48,21.94-4.35,10.27-9.16,20.34-13.97,30.4-.97,2.03-1.94,4.07-2.92,6.1-8.19,17.13-16.38,34.25-24.57,51.38,10.47-3.5,15.75-14.74,21.71-24.03,10.75-16.76,26.59-29.47,40.58-43.63,4.38-4.43,8.69-9.17,10.98-14.97,3.72-9.43,1.56-19.98.83-30.09-.73-10.11.8-21.77,9.12-27.55-4.01,2.78-12.11,0-16.39,3.65-4.91,4.18-4.52,12.18-7.02,17.66Z"/>
  <path class="cls-5" d="M46.42,213.08c-6.77,6.29-13.54,12.59-20.31,18.88,3.25.92,2.85,5.96.52,8.41s-5.77,3.83-7.5,6.74c-2.84,4.79.27,11.29-2.02,16.36-1.57,3.47-5.53,5.98-5.5,9.78.03,3.31,3.16,5.81,3.85,9.05,1.06,5.01-3.8,9.06-6.26,13.55-3.25,5.94-2.3,13.19-1.27,19.88,1.46,9.4,2.92,18.8,4.38,28.21,1.89,12.15,3.78,24.34,7.23,36.15,10.47,35.91,35.08,66.74,65.34,88.71"/>
  <path class="cls-13" d="M110.89,159.4c60.51,15.92,129.68,21.51,192.04,16.34"/>
  <path class="cls-13" d="M108.84,147.92c68.25,15.9,159.82,22.13,229.71,16.94"/>
  <path class="cls-13" d="M110.3,136.28c46.79,6.46,93.57,12.92,140.36,19.38,11.66,1.61,23.34,3.22,35.09,3.69,39.25,1.55,77.52-4.38,120.06.56"/>
  <path class="cls-13" d="M116.28,182.59c35.39,8.69,71.5,15.18,107.98,19.4-35.4-.53-70.79-1.06-106.19-1.59"/>
  <path class="cls-13" d="M120.14,211.08c31.34,5.36,63.31,7.93,95.24,7.65-29.83,3.99-59.67,7.98-89.5,11.97"/>
  <path class="cls-13" d="M129.84,243.49c13.16,1.13,26.39,0,39.55-1.13,15.08-1.3,30.2-2.6,45.01-5.78-24.45,11.07-50.27,19.05-76.66,23.68"/>
  <path class="cls-13" d="M215.97,201.89c20.16,2.18,40.74.45,60.26-5.07,14.55-4.11,28.45-10.29,42.99-14.45,24.23-6.94,49.68-8.15,74.87-8.84,13.97-.38,28.01-.61,41.86,1.25,33.11,4.46,63.31,20.53,93.5,34.84,30.19,14.31,62.55,27.34,95.88,25.03"/>
  <path class="cls-13" d="M213.84,219.16c26.07-2.03,51.99-5.94,77.48-11.76,36.02-8.22,71.96-20.35,108.85-18.47,38.97,1.99,75.19,19.41,111.33,34.13,36.14,14.71,75.59,27.15,113.68,18.69"/>
  <path class="cls-13" d="M215.12,236.45c17.35-10.58,38.96-9.89,59.15-12.23,12.68-1.47,25.17-4.25,37.73-6.56,58.23-10.7,124.47-11.21,182.85-1.36"/>
  <path class="cls-13" d="M571.04,241.99c-26.53,3.98-53.4-1.96-79.84-6.56-47.88-8.32-96.52-12.28-145.11-11.81-29.83.28-59.77,2.25-88.9,8.67-39.63,8.73-76.96,25.49-113.96,42.14"/>
  <path class="cls-13" d="M165.94,282.95c60.24-22.59,121.51-42.45,183.55-59.5"/>
  <path class="cls-12" d="M170.62,300.45c31.75-3.99,63.16-12.14,92-26.18,8.12-3.95,16.01-8.36,24.09-12.4,53.56-26.82,125.15-37.62,184.4-29.75"/>
  <path class="cls-6" d="M171.61,317.69c16.18-2.97,32.86-1.71,49.12-4.13,31.72-4.73,59.55-22.97,88.79-36.23,70.09-31.76,165.87-32,242.7-33.34"/>
  <path class="cls-10" d="M311.89,430.54c-22.52-51.99-19.27-111.03-15.62-167.58.97-14.96,1.94-29.93,2.9-44.89,1.59-24.55,3.2-49.26,9.03-73.16,2.23-9.15,5.1-18.35,4.69-27.76-.55-12.83-7.18-24.69-15.36-34.6-2.66-3.22-5.57-6.4-6.97-10.34s-.85-8.94,2.5-11.44c4.58-3.43,12.56-1.17,15.59-6.03.96-1.55,1.1-3.45,1.59-5.21,2.7-9.73,14.75-12.76,24.76-14.11,3-.4,6.17-.79,8.96.39,2.67,1.13,4.55,3.51,6.59,5.57,5.56,5.62,13.04,9.3,20.88,10.27,2.87.35,6.14.53,7.98,2.76,1.24,1.51,1.48,3.58,1.72,5.51,3.35,26.85,16.97,51.43,21.97,78.03,2.12,11.28,2.66,22.79,3.19,34.25.76,16.41,1.53,32.82,2.29,49.22,3.68,79.03,7.37,158.07,8.77,237.17"/>
  <path class="cls-10" d="M230.19,325.25c-3.09-12.26-6.82-24.43-8.29-36.99-1.34-11.49-.75-23.1-1.04-34.66-1-40.16-12.8-80-33.82-114.23,1.55,24.03-5.73,47.65-8.56,71.56-2.83,23.91-.08,50.8,17.33,67.43-.69,15.24-1.37,30.48-2.06,45.73-.38,8.48-.68,17.39,3.09,25,2.7,5.44,7.31,9.8,9.72,15.38,2.21,5.1,2.42,10.8,3.5,16.25,1.49,7.52,4.66,14.59,7.81,21.58,15.15,33.69,35.58,68.46,46.21,103.75-12.14-26.82-14.36-61.07-18.39-90.06-2.12-15.22-4.1-30.46-6.53-45.63-2.27-14.18-8.99-30.96-8.99-45.1Z"/>
  <path class="cls-13" d="M99.46,257.48c-15.55-15.6-31.63-32.1-52.57-38.94,4.02.43,7.65,3.39,8.86,7.25-5.28-1.47-10.56-2.94-15.83-4.41,30.29,12.19,53.17,37.19,78.24,58.1,8.3,6.92,21.85,17.47,33.1,14.3-20.62-8.29-36.15-20.6-51.8-36.3Z"/>
  <path class="cls-7" d="M94.64,269.98c-17.18-13.79-34.98-28.41-56.54-32.91,4.04-.02,7.98,2.53,9.61,6.22-5.41-.88-10.82-1.76-16.22-2.63,31.45,8.78,56.94,31.1,84.17,49.12,9.01,5.97,23.64,14.95,34.48,10.56-21.41-5.97-38.2-16.49-55.49-30.37Z"/>
  <path class="cls-7" d="M90.75,280.56c-18.32-12.23-37.34-25.23-59.22-27.82,4.02-.37,8.17,1.82,10.12,5.36-5.46-.4-10.93-.8-16.39-1.2,32.1,5.98,59.46,25.98,88.16,41.54,9.5,5.15,24.87,12.82,35.27,7.49-21.85-4.07-39.5-13.07-57.94-25.38Z"/>
  <path class="cls-13" d="M86.84,292.1c-19.43-10.38-39.63-21.46-61.65-21.89,3.97-.77,8.31,1.01,10.59,4.34-5.48.14-10.95.27-16.43.41,32.53,2.81,61.71,20.04,91.8,32.72,9.96,4.2,26,10.33,35.84,4.01-22.14-1.91-40.59-9.15-60.14-19.59Z"/>
  <path class="cls-13" d="M85.86,305.56c-20.47-8.14-41.78-16.89-63.72-14.85,3.85-1.2,8.37.08,11.01,3.13-5.43.75-10.85,1.5-16.28,2.25,32.64-.85,63.57,13.01,94.88,22.24,10.37,3.06,26.99,7.35,36.06-.03-22.22.58-41.36-4.55-61.96-12.73Z"/>
  <path class="cls-13" d="M84.85,316.13c-21.12-6.25-43.14-13.04-64.8-9.03,3.73-1.55,8.34-.68,11.25,2.12-5.34,1.24-10.67,2.47-16.01,3.71,32.43-3.8,64.48,7.2,96.51,13.56,10.6,2.11,27.55,4.88,35.91-3.29-22.07,2.59-41.6-.78-62.86-7.08Z"/>
  <path class="cls-13" d="M85.74,330.46c-21.82-3.01-44.61-6.42-65.42.8,3.46-2.09,8.14-1.92,11.44.41-5.09,2.02-10.18,4.05-15.27,6.07,31.49-8.62,64.83-2.56,97.45-1.08,10.8.49,27.97.69,35.01-8.64-21.44,5.87-41.25,5.47-63.21,2.44Z"/>
  <path class="cls-13" d="M88.62,340.09c-21.99-1.29-44.98-2.89-65.15,5.94,3.28-2.36,7.97-2.56,11.44-.49-4.92,2.42-9.83,4.84-14.75,7.25,30.72-11.07,64.43-7.65,97.07-8.73,10.8-.36,27.93-1.51,34.22-11.37-20.91,7.54-40.69,8.7-62.82,7.4Z"/>
  <path class="cls-13" d="M93.06,355.24c-21.84,2.85-44.72,5.58-62.89,18.03,2.78-2.93,7.35-4,11.14-2.63-4.38,3.3-8.75,6.59-13.13,9.89,28.1-16.62,61.86-19.57,93.72-26.74,10.54-2.37,27.16-6.71,31.49-17.57-19.13,11.32-38.35,16.15-60.33,19.02Z"/>
  <path class="cls-13" d="M98.87,369.68c-21.01,6.62-43.06,13.29-58.78,28.72,2.23-3.37,6.54-5.22,10.51-4.53-3.73,4.01-7.47,8.02-11.2,12.02,24.77-21.27,57.5-30.06,87.62-42.67,9.97-4.18,25.57-11.35,27.94-22.79-16.86,14.48-34.94,22.59-56.08,29.25Z"/>
  <path class="cls-13" d="M103.43,380.78c-20.29,8.57-41.61,17.3-55.81,34.14,1.9-3.56,6.01-5.82,10.04-5.5-3.34,4.34-6.68,8.69-10.02,13.03,22.65-23.51,54.4-35.36,83.19-50.76,9.53-5.1,24.38-13.71,25.66-25.33-15.42,16.01-32.65,25.8-53.07,34.42Z"/>
  <path class="cls-13" d="M113.8,392.25c-18.33,12.21-37.65,24.76-48.45,43.96,1.2-3.86,4.82-6.84,8.84-7.28-2.47,4.89-4.94,9.78-7.41,14.67,17.87-27.33,46.85-44.89,72.25-65.4,8.41-6.79,21.4-18.02,20.48-29.67-12.16,18.61-27.26,31.44-45.71,43.72Z"/>
  <path class="cls-13" d="M120.46,401.99c-16.43,14.67-35.28,28.04-44.31,48.13.85-3.95,4.19-7.24,8.15-8.04-2.02,5.09-4.04,10.18-6.06,15.28,15.34-28.82,85.78-91.49,83.83-103.01-10.44,19.62-16.42,25.16-41.6,47.65Z"/>
  <path class="cls-13" d="M607.6,119.53c-51.05-7.46-90.89-50.07-141.28-61.15-13.82-3.04-28.07-3.6-42.22-3.3-49.75,1.05-101.44,12.34-148.02-5.15-13.05-4.9-25.4-12-39.09-14.66-17.01-3.31-36.02.18-50.69-9.04"/>
  <path class="cls-13" d="M607.51,112.31c-33.12-8.49-62.98-26.2-93.45-41.71-30.48-15.5-63.21-29.23-97.4-28.67-23.77.39-47.03,7.69-70.81,7.97-44.91.53-88.48-23.97-132.91-17.39"/>
  <path class="cls-7" d="M594.76,98.91c-12.69-1.16-24.03-7.99-35.09-14.31-21.98-12.56-44.76-23.73-68.16-33.41-12.69-5.25-25.62-10.09-39.06-12.92-52.86-11.16-109.78,9.18-161.05-7.88-17.62-5.86-34.27-16.08-52.83-16.76"/>
  <path class="cls-7" d="M518.19,52.75c-30.19-15.51-63.71-24.5-97.62-26.17-42.5-2.1-88.46,6.42-125.18-15.1"/>
  <path class="cls-7" d="M457.29,19.85c-43.18,1.72-88.17,3.1-127.55-14.67"/>
  <path class="cls-13" d="M625.37,226.71c-21.75-3.04-43.27-7.78-64.29-14.16-14.16-4.3-28.14-9.36-41.22-16.29-11.16-5.92-21.59-13.16-32.92-18.75-35.33-17.41-76.39-16.37-115.77-17.02-34.6-.58-82.53,22.63-88.07,24.73-4.93,1.87-10.31,2.04-15.58,2.12-51.92.8-103.94-5.16-154.33-17.68"/>
  <path class="cls-7" d="M174.93,384.45c3.8-2.59,14.1-1.89,19.12-4.34,5.82-2.84,12.33-7.33,15.22-13.1-11.39,1.06-24.89,11-34.34,17.43Z"/>
  <path class="cls-7" d="M196.47,385.1c-8.52,4.47-17.63,9.72-21.17,18.66,5.34,1.88,11.31-.32,15.97-3.55,4.65-3.23,8.55-7.48,13.36-10.47,4.26-2.65,9.11-4.24,13.33-6.97,3.52-2.28,6.01-4.91,6.43-8.77-8.1-2.74-20.77,7.35-27.91,11.1Z"/>
  <path class="cls-7" d="M181.78,414.84c-3.79,2.92-7.88,6.74-7.5,11.51,14.54-1.97,27.64-9.62,39.89-17.71,7.2-4.75,34.51-30.98,11.24-21.47-15.49,6.33-30.46,17.53-43.63,27.67Z"/>
  <path class="cls-7" d="M173.57,454.36c6.76-2.11,12.58-6.48,18.25-10.77,8.45-6.4,16.97-12.86,23.88-20.93,6.9-8.05,36.35-25.23,39.17-28.25-25.24,14.61-56.3,32.03-81.54,46.64"/>
  <path class="cls-7" d="M172.66,477.02c7.95-2.51,14.79-7.71,21.46-12.82,9.93-7.61,19.95-15.3,28.09-24.9,8.11-9.57,42.74-30.02,46.06-33.62-29.68,17.39-66.2,38.12-95.89,55.51"/>
  <path class="cls-7" d="M172.74,508.51c9.06-3.25,16.86-9.97,24.46-16.57,11.32-9.84,22.74-19.79,32.01-32.2,9.24-12.38,48.72-38.81,52.49-43.47-33.83,22.48-75.45,49.29-109.28,71.77"/>
  <path class="cls-7" d="M180.19,544.71c8.46-4.24,11.85-10.01,18.48-17.37,9.89-10.97,19.86-22.06,27.45-35.32,7.57-13.22,59.19-59.72,64.79-68.4-30.37,25.99-86.51,76.78-116.87,102.78"/>
  <path class="cls-7" d="M203.02,561.51c7.75-5.71,16.38-11.28,21.76-19.78,8.03-12.67,16.46-19.6,21.78-34.15,5.31-14.51,49.06-69.91,53.18-79.54-25.97,31.23-81.63,96.31-107.6,127.54"/>
  <path class="cls-7" d="M219.34,560.14c20.88-21.02,38.76-45.02,52.92-71.04,5.72-10.5,10.95-21.49,19.1-30.23,10.01-10.73,24.22-17.42,38.87-18.31-13.33,2.08-24.65,10.92-33.76,20.87-9.11,9.95-16.66,21.29-26.31,30.72"/>
  <path class="cls-7" d="M231.66,563.23c14.93-17.35,28.69-35.71,41.16-54.9,4.21-6.48,8.28-13.08,13.17-19.07,11.45-14.04,26.85-24.2,42.01-34.14,4.82-3.16,9.84-6.4,15.54-7.21-23.07,24.72-50.56,53.56-78.19,73.05"/>
  <path class="cls-7" d="M258.75,556.96c4.11-4.04,9.36-8.43,12.52-13.25,22.97-34.97,49.69-66.59,82.87-92.08-3.56,11.51-12.46,20.48-21.35,28.6-11.03,10.07-22.52,19.62-34,29.17-7.96,6.62-18.57,25.7-26.53,32.32"/>
  <path class="cls-7" d="M279.3,551.62c22.91-21.45,45.84-42.93,66.96-66.15,8.53-9.38,16.77-19.05,24.04-29.44,1.99,12.34-6.83,23.91-16.81,31.44-9.98,7.52-21.74,12.91-30.1,22.21"/>
  <path class="cls-13" d="M172.36,330.89c24,.26,48.42-3.22,71.22-10.74,13.7-4.52,30.46-13.67,43.53-19.78,28.14-13.16,54.28-15.76,84.62-22.41,36.51-8.01,73.51-13.79,110.72-17.29,11.65-1.1,23.33-1.97,35.03-2.17,36.77-.61,74.27,5.41,109.9-3.7"/>
  <path class="cls-13" d="M231.71,324.11c35.2-11.1,91.88-23.87,128.44-28.93,13.72-1.9,27.56-2.94,41.18-5.43,17.15-3.14,33.8-8.56,50.89-11.97,48.32-9.65,99.6-3.17,146.21-19.18"/>
  <path class="cls-13" d="M632.55,266.03c-51.29,15.97-104.7,23.83-157.85,31.64-41.42,6.08-82.84,12.16-124.26,18.25-23.65,3.47-47.3,6.95-70.96,10.42-23.4,3.44-46.83,6.88-70.43,8.33-11.96.74-23.94.97-35.92,1.29"/>
  <path class="cls-13" d="M170.83,353.68c69.38-19.16,143.44-14.63,213.27-32.1,18.03-4.51,35.7-10.48,52.77-17.82"/>
  <path class="cls-13" d="M641.26,273.66c-27.47,12.12-61.1,19.45-90.38,26.08-41.96,9.49-85.05,13.14-127.2,21.76-33.07,6.77-65.5,16.59-98.81,21.98-17.62,2.85-35.42,4.45-53.21,6.05-33.74,3.03-67.48,6.06-101.22,9.09"/>
  <path class="cls-13" d="M205.98,362.71c38.94-.4,77.88-.81,116.82-1.59,19.99-.4,40.16-.93,59.59-5.68,10.74-2.62,21.12-6.51,31.78-9.43,46.02-12.62,95.88-7.01,141.15-22.1,35.44-11.81,114.62-48.27,149.24-70.03"/>
  <path class="cls-11" d="M235.65,375.57c37.64-.4,75.29-.81,112.93-1.59,19.32-.4,38.83-.93,57.6-5.68,10.38-2.62,20.42-6.51,30.72-9.43,44.49-12.62,92.68-7.01,136.45-22.1,34.26-11.81,114.53-61.05,148.04-74.97"/>
  <path class="cls-8" d="M257.4,392.38c35.77-.4,71.54-.81,107.31-1.59,18.36-.4,36.89-.93,54.74-5.68,9.86-2.62,19.4-6.51,29.2-9.43,42.28-12.62,88.07-7.01,129.66-22.1,32.56-11.81,133.01-70.94,164.85-84.86"/>
  <path class="cls-3" d="M274.21,404.25c34.49-.4,68.99-.81,103.48-1.59,17.71-.4,35.58-.93,52.78-5.68,9.51-2.62,18.71-6.51,28.15-9.43,40.77-12.62,84.93-7.01,125.03-22.1,31.39-11.81,146.6-77.86,177.31-91.79"/>
  <path class="cls-4" d="M285.08,414.14c33.47-.4,66.95-.81,100.41-1.59,17.18-.4,160.95-22.12,199.86-37.21,30.46-11.81,171.52-84.79,201.32-98.71"/>
  <path class="cls-14" d="M299.07,424.89c32.01-.4,64.03-.81,96.03-1.59,16.43-.4,33.02-.93,48.98-5.68,8.83-2.62,107.3-11.59,142.16-31.53,15.14-8.66,131.77-67.78,213.29-93.64"/>
  <path class="cls-18" d="M332.68,438.74c28.78-.4,57.56-.81,86.33-1.59,14.77-.4,141.3-27.72,174.76-42.81,26.19-11.81,53.42-32.64,111.78-55.39"/>
  <path class="cls-17" d="M345.53,445.66c27.07-.4,54.15-.81,81.22-1.59,13.9-.4,111.62-10.16,161.66-37.21,24.04-12.99,75.24-40.14,99.34-54.07"/>
  <path class="cls-16" d="M407.29,244.22c11.38,4.26,23.53,4.97,35.53,6.33-2.71-1.02-5.43-2-8.18-2.91-11.45-3.81-23.23-6.65-35.17-8.44.02.1.04.2.05.31-.37.09-.73.2-1.08.34,2.79,1.75,5.75,3.22,8.85,4.37Z"/>
  <path class="cls-16" d="M399.73,238.22c13.58,2.03,26.94,5.46,39.86,10.08,2.42.87,4.82,1.79,7.21,2.73,2.89.38,5.77.81,8.61,1.38.62.12.36,1.08-.26.95-1.51-.3-3.04-.56-4.56-.79,9.22,3.85,18.19,8.3,26.83,13.32,3,1.74,6.02,3.5,8.89,5.45,2.57,1.75,4.98,3.77,7.29,5.85,4.73,4.26,9.04,8.96,13.56,13.45,2.21,2.19,4.47,4.33,6.85,6.33,2.36,1.98,4.89,3.65,7.42,5.39,3.93,2.69,8.43,4.43,12.83,6.16,3.69,1.45,7.52,2.94,11.08,4.83-11.6-11.44-32.36-25.9-36.86-29.32-33.51-25.47-71.31-45.29-111.39-58.18.73,4.1,1.46,8.21,2.18,12.31.15.02.3.04.45.06Z"/>
  <path class="cls-16" d="M422.75,284.57c-3.34-2.06-6.71-4.09-10.14-6.01-5.05-2.83-10.22-5.46-15.53-7.76-.6.23-1.18.52-1.73.85,6.74,4.15,13.92,7.56,21.25,10.53,2.04.83,4.09,1.62,6.16,2.39Z"/>
  <path class="cls-16" d="M462.6,308.73c7.88,4.63,16.01,8.88,24.54,12.2,8.08,3.15,16.51,5.43,25.13,6.47-.44-.44-.87-.88-1.32-1.31-6.49-6.19-13.94-11.29-21.83-15.54-7.96-4.29-16.34-7.73-24.83-10.81-8.6-3.12-17.32-5.87-26-8.73-2.49-.82-4.97-1.66-7.44-2.51,2.76,1.77,5.51,3.56,8.25,5.36,7.76,5.07,15.5,10.17,23.5,14.86Z"/>
  <path class="cls-16" d="M497.89,359.22c-6.58,2.34-13.48,3.75-20.41,4.54-4.25.49-8.52.74-12.8.83,5.55.65,11.16.8,16.71.06,5.82-.78,11.4-2.62,16.5-5.43Z"/>
  <path class="cls-16" d="M429.35,361.27c7.43.96,14.9,1.7,22.39,2.08-6.17-1.34-12.27-2.97-18.39-4.53-7.79-1.99-15.62-3.9-23.6-4.93-5.26-.68-10.58-.96-15.87-.61.13.84.27,1.67.44,2.5,3.27.54,6.54,1.09,9.8,1.64,8.39,1.4,16.79,2.76,25.22,3.85Z"/>
  <path class="cls-16" d="M436.7,376.14c5.65,1.35,11.31,2.65,16.99,3.82,5.45,1.12,10.93,2.12,16.45,2.87,5,.68,10.04,1.15,15.09,1.2,4.29.04,8.62-.21,12.8-1.17,3.42-.78,6.81-2.06,9.6-4.25,2.41-1.89,4.17-4.41,5.22-7.26-8.18,2.47-16.54,4.38-25.01,5.53-7.84,1.07-15.74,1.41-23.64.84-7.9-.57-15.73-1.91-23.5-3.41-12.36-2.39-24.78-5.29-37.37-6.05.55.11,1.1.22,1.64.34,5.09,1.08,10.15,2.29,15.21,3.52,5.5,1.34,11,2.7,16.51,4.02Z"/>
  <path class="cls-1" d="M547.67,315.74c-5.46-3.46-11.99-5.5-17.81-7.93-4.57-1.91-8.76-4.29-12.77-7.19-4.97-3.6-9.34-7.94-13.63-12.31-4.4-4.49-8.74-9.06-13.61-13.04-5.27-4.32-11.34-7.7-17.3-10.99-8.4-4.64-17.1-8.74-26.02-12.28-1.68-.22-3.36-.42-5.04-.61-14.99-1.67-31.2-2.63-44.15-11.04-3.51,1.91-5.6,6.05-5.95,10.27,4.97,2.31,9.9,4.71,14.82,7.14,2.23.74,4.48,1.43,6.73,2.08,9.41,2.72,18.99,4.8,28.5,7.14,9.2,2.27,18.39,4.76,27.13,8.45,10.15,4.28,19.86,9.71,29.22,15.48,9.58,5.91,18.83,12.33,27.96,18.92.47.34.17.98-.38.9-1.21-.17-2.41-.36-3.62-.58-9.51-1.72-18.64-4.99-27.44-8.93-8.73-3.91-17.15-8.45-25.67-12.78-4.25-2.16-8.54-4.27-12.9-6.22-2.2-.98-4.42-1.92-6.67-2.8-2.51-.98-4.96-2.13-7.41-3.25-10.04-4.58-19.89-9.55-29.75-14.48-2.03-1.01-4.06-2.02-6.09-3.02-4.94-1.65-9.81-3.57-14.46-5.92.03.45.07.9.14,1.34.95,6.02,4.77,11.14,8.47,15.98-.51.05-1.01.15-1.5.27,5.87,2.6,11.57,5.59,17.13,8.79,3.92,2.26,7.78,4.63,11.61,7.05,4.97,1.77,9.98,3.44,15,5.08,8.68,2.84,17.39,5.63,25.94,8.86,8.42,3.18,16.71,6.78,24.52,11.28,7.78,4.48,15.04,9.87,21.31,16.31.28.28.1.89-.35.84-1.11-.12-2.22-.25-3.32-.41-9.05-1.27-17.85-3.9-26.28-7.42-8.45-3.53-16.52-7.89-24.37-12.6-7.95-4.78-15.69-9.91-23.45-14.98-3.14-2.05-6.29-4.08-9.46-6.09-4.67-1.67-9.31-3.42-13.87-5.37-6.36-2.72-12.58-5.81-18.46-9.46-4.19,2.98-6.7,8.47-5.49,13.51,7.76,1.86,14.92,6.06,21.51,10.41,2.77,1.83,5.47,3.75,8.14,5.7,8.06,3.21,16.26,6.07,24.42,9.02,4.35,1.57,8.69,3.16,12.99,4.86,3.94,1.56,7.78,3.32,11.66,4.99,7.38,3.19,14.99,5.82,22.23,9.35,6.48,3.16,13.47,7.16,17.24,13.56.19.31-.05.76-.43.74-1.23-.04-2.46-.11-3.68-.2-9.37-.7-18.55-2.91-27.28-6.36-8.46-3.34-16.46-7.74-24.24-12.43-4.11-2.48-8.17-5.04-12.23-7.6-1.96-1.24-3.98-2.41-5.88-3.75-1.52-1.07-3.01-2.17-4.5-3.28-3.58-2.67-7.13-5.38-10.73-8.01-2.07-.82-4.13-1.67-6.17-2.55-7.7-3.31-15.25-7.09-22.18-11.83.71,1.82,1.47,3.62,1.34,5.54-.19,2.82-2.22,5.11-3.6,7.57-.37.66-.66,1.34-.92,2.04,1.49.92,2.98,1.83,4.5,2.71,7.62,4.4,15.54,8.24,23.36,12.25,7.65,3.93,15.23,8.06,22.22,13.09.4.28.26.89-.25.92-3.89.21-7.78-.09-11.63-.69-6.75-1.05-13.32-3.01-19.94-4.65-3.34-.83-6.71-1.58-10.12-2.06.6.32,1.22.61,1.87.85-1.41,3.71-2.38,7.58-2.92,11.51,4.92.1,9.84.31,14.76.62,8.09.52,16.16,1.28,24.22,2.19,8.02.9,16.02,1.95,24.02,3.03,8.07,1.09,16.14,2.21,24.21,3.26,7.92,1.03,15.85,1.99,23.8,2.77.54.05.69.8.13.97-.84.26-1.68.51-2.52.74-7.37,2-15.04,2.78-22.66,2.93-8.47.16-16.94-.48-25.34-1.55-8.72-1.11-17.38-2.7-25.97-4.55-8.4-1.82-16.75-3.9-25.05-6.13-3.26-.88-6.52-1.79-9.77-2.7-.48,4.41-.41,8.87.18,13.26,6.11-.41,12.26.02,18.33.92,7.98,1.19,15.82,3.17,23.63,5.18,7.41,1.9,14.81,3.86,22.35,5.2,7.32.14,14.67-.13,21.93-1.14,7.73-1.07,15.39-2.96,22.54-6.13.58-.26,1.02.48.5.85-.82.58-1.65,1.14-2.5,1.67-6.44,4.03-13.75,6.34-21.3,7.03-7.1.65-14.25-.07-21.25-1.31-1.9-.04-3.81-.1-5.71-.19-8.65-.42-17.26-1.35-25.83-2.52-8.46-1.15-16.88-2.55-25.3-3.96-2.19-.37-4.38-.73-6.57-1.1.55,2.44,1.24,4.85,2.13,7.19.4,1.04.85,2.07,1.33,3.09,7.32.06,14.61.96,21.83,2.19,15.59,2.65,30.98,6.79,46.83,7.61,15.84.82,31.74-2.13,46.84-6.76.36-.11.72.25.61.61-.26.84-.57,1.67-.94,2.46-1.43,3.07-3.77,5.6-6.64,7.39-3.16,1.97-6.82,3.06-10.47,3.68-4.41.75-8.92.87-13.38.7-5.2-.2-10.38-.79-15.52-1.57-5.61-.85-11.19-1.92-16.74-3.11-5.71-1.22-11.39-2.55-17.06-3.93-5.49-1.33-10.98-2.69-16.47-4.01-4.96-1.19-9.92-2.35-14.92-3.36-1.12-.23-2.24-.43-3.37-.63,2.19,4.27,5.17,8.12,9.19,10.67,4.94,3.12,10.94,3.98,16.74,4.73,31.96,4.15,65.09,7.29,95.86-2.27,5.73-1.78,12.24-5.14,12.74-11.12.12-1.44-.15-2.85-.56-4.23,0,0,0,0-.01,0-2.82.96-5.09,3-7.91,3.96-.61.21-.86-.75-.26-.95,2.81-.95,5.08-2.99,7.89-3.95-.2-.59-.41-1.18-.62-1.77-2.95.77-6.07.77-8.98,1.72-.61.2-.87-.76-.26-.95,2.89-.94,5.98-.95,8.91-1.7-.11-.3-.21-.61-.31-.91-.54-1.7-.86-3.43-.99-5.18-3.05.87-6.32.85-9.46.85-.64,0-.64-.99,0-.99,3.13,0,6.38.03,9.41-.87-.02-.79-.02-1.58.03-2.37-3.47-.29-6.94-.71-10.43-.72-.64,0-.64-.99,0-.99,3.51,0,7,.43,10.5.72.2-1.99.63-3.96,1.27-5.87-4.16-1.11-8.4-1.77-12.75-1.78-.64,0-.64-.99,0-.99,4.47,0,8.81.69,13.08,1.83.55-1.48,1.21-2.92,1.99-4.29-4.66-1.74-9.39-3.27-14.22-4.48-.62-.16-.35-1.11.26-.95,4.9,1.23,9.72,2.8,14.45,4.57.26-.43.53-.85.81-1.26.98-1.43,3.21-3.07,5.78-4.73-6.26-3.83-12.49-7.75-19.33-10.49-.58-.23-.33-1.19.26-.95,2.12.85,4.2,1.8,6.23,2.84,4.74,2.41,9.23,5.25,13.77,8.02,2.44-1.52,5.08-3.03,7.21-4.38-7.02-4.63-13.54-10-20.67-14.47-.54-.34-.04-1.19.5-.85,7.27,4.56,13.9,10.05,21.08,14.74,1.86-1.22,3.17-2.28,3.35-3.04.52-2.23-1.74-5.72-5.49-9.75Z"/>
  <path class="cls-16" d="M431.42,347.5c8.6,1.79,17.27,3.3,26,4.3,8.28.94,16.62,1.44,24.95,1.1,6.66-.27,13.34-1.09,19.78-2.84-.12-.01-.24-.02-.36-.04-8-.82-15.98-1.82-23.95-2.87-8.01-1.06-16-2.18-24.01-3.25-8.04-1.07-16.08-2.1-24.14-2.97-8.1-.88-16.21-1.59-24.35-2.04-3.36-.19-6.73-.31-10.1-.4,3.7,1.03,7.4,2.04,11.11,3.02,8.3,2.19,16.65,4.23,25.06,5.99Z"/>
  <path class="cls-16" d="M434.96,331.57c-3.55-2.48-7.24-4.76-11.01-6.89-7.58-4.29-15.44-8.05-23.17-12.06-4.9-2.54-9.76-5.2-14.45-8.1-2.05,6.9.77,15.07,6.54,19.36,1.1.12,2.2.26,3.29.44,12.99,2.09,25.49,7.52,38.79,7.26Z"/>
  <path class="cls-16" d="M407.85,295.65c-5.69-3.61-11.9-7.12-18.53-8.81.57.4,1.14.81,1.72,1.2,7.42,4.97,15.51,8.86,23.74,12.28-2.27-1.61-4.58-3.18-6.93-4.68Z"/>
  <path class="cls-16" d="M442.09,318.4c4.03,2.54,8.07,5.06,12.17,7.49,7.83,4.63,15.92,8.91,24.49,12.02,8.7,3.16,17.8,5.01,27.04,5.44-.27-.42-.55-.83-.86-1.22-2.21-2.87-5.13-5.16-8.16-7.11-3.39-2.18-7.01-3.98-10.68-5.63-7.14-3.21-14.54-5.8-21.67-9.03-8.34-3.79-16.99-6.86-25.61-9.94-5.74-2.05-11.48-4.11-17.18-6.31,3.16,2.36,6.31,4.75,9.49,7.09,3.53,2.59,7.25,4.87,10.96,7.2Z"/>
  <path class="cls-16" d="M445.82,276.96c4.45,1.98,9,3.72,13.42,5.78,4.3,2,8.53,4.14,12.74,6.31,8.5,4.37,16.96,8.86,25.76,12.61,8.28,3.53,16.89,6.33,25.79,7.79-.58-.41-1.15-.83-1.73-1.24-9.1-6.5-18.36-12.8-27.96-18.54-4.79-2.86-9.66-5.58-14.63-8.12-4.68-2.39-9.43-4.67-14.34-6.55-8.96-3.43-18.29-5.78-27.6-8.02-8.51-2.05-17.06-3.98-25.45-6.45,1.38.69,2.75,1.37,4.13,2.06,9.88,4.94,19.77,9.87,29.87,14.36Z"/>
  <path class="cls-7" d="M221.98,122.43c-.51,5.25-1.01,10.6.08,15.77,1.09,5.17,4.03,10.21,8.78,12.52,8.2,3.99,17.68-1.31,25.22-6.43,2.14-1.45,4.33-2.95,5.77-5.1,1.05-1.57,1.64-3.41,2.06-5.25,1.86-8.12.57-17.05-4.11-23.94-14.34-21.11-35.7-9.32-37.8,12.43Z"/>
  <path class="cls-7" d="M217.14,123.08c-.62,6.76-1.24,13.64.09,20.28s4.96,13.13,10.79,16.1c10.08,5.13,21.74-1.69,31.02-8.27,2.63-1.86,5.32-3.79,7.09-6.55,1.29-2.02,2.02-4.38,2.54-6.75,2.29-10.44.71-21.93-5.05-30.79-17.63-27.15-43.9-11.99-46.48,15.98Z"/>
</svg>